# xmcd
#
# Track frame offsets:
#	150
#	20597
#	34155
#	56409
#	71740
#	85283
#	100443
#	116504
#	140706
#	155214
#	170986
#	184065
#	201872
#	215811
#
# Disc length: 3044 seconds
#
# Revision: 2
# Processed by: cddbd v1.5.2PL0 Copyright (c) Steve Scherf et al.
# Submitted via: EasyCDDAExtractor 15.2.5.1
#
DISCID=dd0be20e
DTITLE=한영애 - Behind Time 1925-1955 A Memory Left An Alley (2003)
DYEAR=2003
DGENRE=Blues
TTITLE0=목포의 눈물
TTITLE1=선창
TTITLE2=애수의 소야곡
TTITLE3=외로운 가로등
TTITLE4=타향살이
TTITLE5=굳세어라 금순아
TTITLE6=황성옛터
TTITLE7=사의찬미
TTITLE8=따오기
TTITLE9=강남달
TTITLE10=오동나무
TTITLE11=부용산
TTITLE12=꽃을 잡고
TTITLE13=타향살이(Voice)
EXTD=Mad-On-A-Bullit YEAR: 2003
EXTT0=
EXTT1=
EXTT2=
EXTT3=
EXTT4=
EXTT5=
EXTT6=
EXTT7=
EXTT8=
EXTT9=
EXTT10=
EXTT11=
EXTT12=
EXTT13=
PLAYORDER=
